<?xml version="1.0" encoding="UTF-8"?>
<svg width="619px" height="157px" viewBox="0 0 619 157" version="1.1" xmlns="http://www.w3.org/2000/svg" xmlns:xlink="http://www.w3.org/1999/xlink">
    <!-- Generator: Sketch 56.3 (81716) - https://sketch.com -->
    <title>编组 4</title>
    <desc>Created with Sketch.</desc>
    <g id="页面-1" stroke="none" stroke-width="1" fill="none" fill-rule="evenodd">
        <g id="Custom-Preset" transform="translate(-82.000000, -256.000000)">
            <g id="编组-4" transform="translate(82.000000, 256.000000)">
                <g id="编组-2">
                    <circle id="椭圆形" fill-opacity="0.05" fill="#F03346" cx="57" cy="57" r="57"></circle>
                    <g id="编组" transform="translate(25.000000, 30.000000)">
                        <g id="好友" fill="#2C2222" fill-rule="nonzero">
                            <path d="M25.5846785,31.3435145 C16.7854427,31.3435145 9.62625035,24.313603 9.62625035,15.6717572 C9.62625035,7.03048804 16.7855079,0 25.5846785,0 C34.3836534,0 41.5430414,7.03055209 41.5430414,15.6717572 C41.5430414,24.3134748 34.3837186,31.3435145 25.5846785,31.3435145 L25.5846785,31.3435145 Z M25.5846785,2.99293325 C18.4663209,2.99293325 12.6739837,8.67765511 12.6739837,15.6717572 C12.6739837,22.6618877 18.4663796,28.351478 25.5846785,28.351478 C32.7068195,28.351478 38.4953733,22.6618748 38.4953733,15.6717572 C38.4953733,8.67759105 32.706689,2.99293325 25.5846785,2.99293325 L25.5846785,2.99293325 Z M1.52511912,55 C0.682957894,55 0,54.3295186 0,53.502194 C0,46.8093646 2.65168197,40.5075557 7.4685188,35.7661129 C8.0638268,35.1781441 9.02792345,35.1781441 9.62612641,35.7618855 C10.2206177,36.3462829 10.2206177,37.2935786 9.62612641,37.8774635 C5.38519651,42.0570194 3.04729631,47.607107 3.04729631,53.5022009 C3.04729631,54.3295256 2.36730644,55 1.52499518,55 L1.52499518,55 L1.52511912,55 Z M25.6991593,31.3689462 C24.8420797,31.4522545 24.0630819,30.7927849 24.0259718,29.9470194 C23.9887883,29.1454212 24.6131155,28.4592008 25.422618,28.3869031 C25.4702664,28.3832588 25.5371373,28.3796874 25.5848598,28.3796874 C39.6925476,28.3796874 51.1667203,39.6510557 51.1667203,53.50198 C51.1667203,54.3293046 50.4866522,54.9997791 49.6442757,54.9997791 C48.8016709,54.9997791 48.1190065,54.3293046 48.1190065,53.50198 C48.1190065,41.3020023 38.0120151,31.3725566 25.6991645,31.3689052 L25.6991645,31.3689052 L25.6991593,31.3689462 Z M43.2275074,6.18899981 C42.3854244,6.18899981 41.7057998,5.51816023 41.7057998,4.69120075 C41.7057998,3.86402346 42.3854962,3.19609859 43.2275074,3.19609859 C50.4381671,3.19609859 56.3008888,9.25865737 56.3008888,16.705905 C56.3008888,24.1572012 50.4382128,30.2193628 43.2275074,30.2193628 C42.3854244,30.2193628 41.7057998,29.5481581 41.7057998,28.7212691 C41.7057998,27.8943801 42.3854962,27.2261669 43.2275074,27.2261669 C48.7581304,27.2261669 53.2536773,22.5068183 53.2536773,16.7058986 C53.2536773,10.9055105 48.7581825,6.18902544 43.2275074,6.18902544 L43.2275074,6.18902544 L43.2275074,6.18899981 Z M43.2275074,30.2299647 C42.3854244,30.2299647 41.7057998,29.55876 41.7057998,28.731871 C41.7057998,27.9049115 42.3854962,27.2368393 43.2275074,27.2368393 C54.6830892,27.2368393 64,36.8908923 64,48.757119 C64,49.5841554 63.3195666,50.2549949 62.4774771,50.2549949 C61.6348005,50.2549949 60.9519144,49.5841554 60.9519144,48.757119 C60.9519886,38.5413264 53.0020544,30.2299647 43.2274813,30.2299647 L43.2274813,30.2299647 L43.2275074,30.2299647 Z" id="形状"></path>
                        </g>
                        <circle id="椭圆形" fill-opacity="0.5" fill="#F03346" cx="25.7" cy="15.4" r="13"></circle>
                    </g>
                </g>
                <g id="编组-2" transform="translate(253.000000, 0.000000)">
                    <circle id="椭圆形" fill-opacity="0.05" fill="#F03346" cx="57" cy="57" r="57"></circle>
                    <path d="M57.143336,80.7460288 L27.3133161,80.7460288 C26.1466512,80.7460288 25.3333147,80.0528223 25.3333147,79.4319672 L25.3333147,52.1445222 L83.6667132,52.1445222 L83.6667132,57.0524908 L83.6667132,57.052491 C83.6667133,57.9817346 84.4129059,58.7350291 85.3333783,58.7350291 C86.2538555,58.735029 87.0000435,57.9817299 87.0000435,57.052491 L87.0000435,41.675778 C87.0000435,39.0964431 84.616706,37 81.6883759,37 L27.3133395,37 C24.3833375,37 22,39.0964431 22,41.675778 L22,79.4303348 C22,82.0113496 24.3833375,84.1111604 27.3133395,84.1111604 L57.1433595,84.1111604 L57.1433594,84.1111604 C58.0638366,84.1111604 58.8100246,83.3578612 58.8100246,82.4286223 C58.8100246,81.4993788 58.0638319,80.7460843 57.1433594,80.7460843 L57.143336,80.7460288 Z M25.33326,41.6757777 C25.33326,41.0549202 26.1466512,40.3650759 27.3133161,40.3650759 L81.6899931,40.3650759 C82.8549939,40.3650759 83.6666585,41.0549178 83.6666585,41.6757777 L83.6666585,48.7794619 L25.33326,48.7794619 L25.33326,41.6757777 L25.33326,41.6757777 Z M30.3333181,60.5572756 L30.333318,60.5572756 C29.4128408,60.5572756 28.6666528,61.3105749 28.6666528,62.2398137 C28.6666528,63.1690573 29.4128455,63.9223518 30.333318,63.9223518 L33.6666528,63.9223518 L33.6666528,63.9223518 C34.5871333,63.9223518 35.3333213,63.1690525 35.3333213,62.2398137 C35.3333213,61.3105701 34.5871286,60.5572756 33.6666528,60.5572756 L30.3333179,60.5572756 L30.3333181,60.5572756 Z M40.3333248,60.5572756 L40.3333247,60.5572756 C39.4128475,60.5572756 38.6666595,61.3105749 38.6666595,62.2398137 C38.6666595,63.1690573 39.4128522,63.9223518 40.3333247,63.9223518 L43.6666595,63.9223518 L43.6666595,63.9223518 C44.58714,63.9223518 45.333328,63.1690525 45.333328,62.2398137 C45.333328,61.3105701 44.5871353,60.5572756 43.6666595,60.5572756 L40.3333246,60.5572756 L40.3333248,60.5572756 Z M50.3333315,60.5572756 L50.3333314,60.5572756 C49.4128542,60.5572756 48.6666662,61.3105749 48.6666662,62.2398137 C48.6666662,63.1690573 49.4128589,63.9223518 50.3333314,63.9223518 L53.6666662,63.9223518 L53.6666662,63.9223518 C54.5871467,63.9223518 55.3333347,63.1690525 55.3333347,62.2398137 C55.3333347,61.3105701 54.587142,60.5572756 53.6666662,60.5572756 L50.3333313,60.5572756 L50.3333315,60.5572756 Z M76.5833491,58.8730498 C68.0817027,58.8730498 61.1649794,65.855591 61.1649794,74.4365249 C61.1649794,83.0208738 68.081648,90 76.5833491,90 C85.0849954,90 92,83.0208186 92,74.4365249 C92,65.8555674 85.0849954,58.8730498 76.5833491,58.8730498 Z M76.5833491,87.4762678 C69.4616802,87.4762678 63.664981,81.6260738 63.664981,74.4366038 C63.664981,67.2487899 69.461649,61.3969397 76.5833491,61.3969397 C83.7050179,61.3969397 89.4999983,67.2488136 89.4999983,74.4366038 C89.4999983,81.6260975 83.7049944,87.4762678 76.5833491,87.4762678 Z" id="形状" fill="#2C2222" fill-rule="nonzero"></path>
                    <circle id="椭圆形" fill-opacity="0.5" fill="#F03346" cx="76.7" cy="74.5" r="13"></circle>
                    <path d="M81.4133523,79.9267051 C81.3683523,80.3708959 81.038352,80.5929912 80.4233516,80.5929912 L79.8300176,80.5929912 C79.2583508,80.5929912 78.973353,80.3271495 78.973353,79.793787 L78.973353,75.733819 C79.5000198,75.733819 80.0716897,75.711946 80.6866901,75.6665174 L81.2800241,76.2655021 C81.4983578,76.5767724 81.6750243,76.7971847 81.8066908,76.9317882 L83.453356,75.4006788 L83.4533575,75.4006804 C82.000169,73.8899034 80.4591055,72.4678779 78.8383544,71.1421673 L77.2566893,72.2728346 L77.8483561,72.8718194 C78.3750228,73.3614387 78.7483567,73.7383304 78.9700209,74.0041666 C78.2216868,74.0041666 77.2333557,74.0277222 76.0033548,74.0697857 C74.5533539,74.0697857 73.5633532,74.0933413 73.0366888,74.1370873 L73.0366892,74.1370869 C74.0913852,73.1618705 75.102925,72.1401372 76.0683553,71.0748602 L83.6516963,71.0748602 L83.6516963,69.0120627 L77.4533563,69.0120627 L77.4533563,69.0120628 C77.3962821,68.8839557 77.3521695,68.750357 77.3216898,68.6133007 L77.3216907,68.6133031 C77.1354406,68.1203634 76.9381678,67.6317378 76.7300239,67.1478128 L74.4866865,67.6794954 C74.5300199,67.8124159 74.618353,68.0361943 74.7500203,68.3457815 L74.7500202,68.3457814 C74.8610641,68.5577697 74.949343,68.7811341 75.0133532,69.0120668 L68.6183489,69.0120668 L68.6183489,71.0748643 L73.2350161,71.0748643 C71.9583512,72.5403546 70.7516785,73.6289611 69.6083496,74.3356282 L70.4000142,76.1982007 C70.9700146,76.1107088 71.7833511,76.0652802 72.8400158,76.0652802 C72.5766821,78.5066494 71.0800146,80.1033779 68.3566769,80.8588413 C68.8400108,81.2138571 69.3666776,81.8582705 69.938342,82.7887129 C73.1033441,81.7674133 74.7950093,79.4589622 75.0150095,75.8667431 C75.5416762,75.8667431 76.1366743,75.8448701 76.7950107,75.7994414 L76.7950107,80.1252535 C76.7950107,81.6328126 77.4983447,82.3899559 78.9050121,82.3899559 L80.6850133,82.3899559 C82.1783502,82.3899559 83.0583508,81.9238924 83.3216791,80.9917646 C83.5850129,80.3709071 83.805013,79.5935733 83.9816815,78.6614431 L83.9816815,78.6614437 C83.2193794,78.4146986 82.4710398,78.1259912 81.7400159,77.7966205 C81.6550159,78.6395733 81.5466822,79.3496081 81.4133493,79.926717 L81.4133523,79.9267051 Z" id="路径" fill="#2C2222" fill-rule="nonzero"></path>
                </g>
                <text id="邀请好友" font-family="PingFangSC-Regular, PingFang SC" font-size="24" font-weight="normal" fill="#483A39">
                    <tspan x="9" y="154">邀请好友</tspan>
                </text>
                <text id="好友充值" font-family="PingFangSC-Regular, PingFang SC" font-size="24" font-weight="normal" fill="#483A39">
                    <tspan x="262" y="154">好友充值</tspan>
                </text>
                <text id="你得赏金" font-family="PingFangSC-Regular, PingFang SC" font-size="24" font-weight="normal" fill="#483A39">
                    <tspan x="514" y="154">你得赏金</tspan>
                </text>
                <g id="充值" transform="translate(167.000000, 53.000000)" fill="#F03346">
                    <g id="编组-3">
                        <circle id="椭圆形" fill-opacity="0.3" cx="3.66666667" cy="3.66666667" r="3.66666667"></circle>
                        <circle id="椭圆形" fill-opacity="0.4" cx="16.5" cy="3.66666667" r="3.66666667"></circle>
                        <circle id="椭圆形" fill-opacity="0.5" cx="29.3333333" cy="3.66666667" r="3.66666667"></circle>
                    </g>
                </g>
                <g id="充值" transform="translate(419.000000, 53.000000)" fill="#F03346">
                    <g id="编组-3">
                        <circle id="椭圆形" fill-opacity="0.3" cx="3.66666667" cy="3.66666667" r="3.66666667"></circle>
                        <circle id="椭圆形" fill-opacity="0.4" cx="16.5" cy="3.66666667" r="3.66666667"></circle>
                        <circle id="椭圆形" fill-opacity="0.5" cx="29.3333333" cy="3.66666667" r="3.66666667"></circle>
                    </g>
                </g>
                <g id="编组-2" transform="translate(505.000000, 0.000000)">
                    <circle id="椭圆形" fill-opacity="0.05" fill="#F03346" cx="57" cy="57" r="57"></circle>
                    <path d="M57.5878124,59.3541813 C58.8467082,58.1057159 60.0679752,56.8872553 61.3014057,55.677227 C62.0406815,54.9469235 62.9730099,54.8054022 63.8119418,55.2743058 C64.8595753,55.8595042 65.1752596,57.3214461 64.3667722,58.2040922 C63.4513021,59.2042277 62.4558796,60.1336729 61.4980148,61.0942471 C61.4106646,61.1806777 61.326871,61.2741351 61.1800543,61.428867 L61.6376471,61.428867 C62.49109,61.4432721 63.3445329,61.4169213 64.1931387,61.4780551 C65.167933,61.5488158 65.9048615,62.4050409 65.9242805,63.3968144 C65.9412811,64.3573886 65.2225624,65.2173379 64.2744427,65.3624429 C64.0583434,65.3947666 63.8386164,65.4091717 63.6225171,65.4091717 C62.2895727,65.41395 60.9578377,65.4115608 59.5945199,65.4115608 L59.5945199,67.5714123 L59.962344,67.5714123 C61.1957745,67.5714123 62.4304143,67.5642448 63.6661922,67.5738717 C64.7855268,67.5834282 65.5795033,68.2765594 65.731228,69.3511096 C65.8756973,70.3860984 65.044092,71.4618432 63.9855042,71.5037936 C62.6889795,71.5553709 61.3863374,71.5314093 60.0849757,71.5410361 L59.584846,71.5410361 C59.5775194,71.6836817 59.5654269,71.8059494 59.5654269,71.9295522 C59.5556818,73.1287591 59.5799379,74.3280364 59.5302165,75.5249245 C59.4925165,76.513044 58.6791921,77.2373746 57.629069,77.3141784 C56.7137412,77.3825499 55.8032504,76.690543 55.6065702,75.7611681 C55.5592673,75.5405241 55.5495222,75.3114479 55.5495222,75.0847608 C55.5422667,73.9202666 55.5446852,72.7546481 55.5446852,71.5409658 L55.1440693,71.5409658 C53.71154,71.5337984 52.2802911,71.55776 50.8501804,71.510961 C49.8122208,71.476178 49.0437808,70.6307041 49.0012438,69.5922018 C48.9660334,68.6579784 49.6823336,67.7884725 50.6486631,67.6182113 C50.8501804,67.5809688 51.0614427,67.5738717 51.2677969,67.5738717 C52.675999,67.5690231 54.0866907,67.5714123 55.5215673,67.5714123 L55.5215673,65.4115608 L55.1901629,65.4115608 C53.8996844,65.4115608 52.6104863,65.4164094 51.3200078,65.4091717 C50.3499795,65.4043934 49.5864475,64.8959285 49.3071829,64.0852376 C48.8398451,62.7264503 49.7952202,61.4599961 51.3200078,61.4312561 C52.0738658,61.4193104 52.8277949,61.428867 53.5816528,61.428867 L53.9919427,61.428867 C53.859637,61.2885402 53.78317,61.2058339 53.7030753,61.1290301 C52.8070954,60.2415355 51.9062786,59.3601542 51.0164872,58.4702704 C50.1800449,57.6319638 50.1229969,56.5167281 50.8574358,55.6736433 C51.5336175,54.89893 52.7876764,54.7574087 53.5694892,55.4326213 C54.2359969,56.0070686 54.8429671,56.6462334 55.4706367,57.2614366 C56.1674467,57.9462058 56.860629,58.634629 57.5878124,59.3541813 L57.5878124,59.3541813 Z" id="路径" fill-opacity="0.8" fill="#F03346" fill-rule="nonzero"></path>
                    <path d="M74.6581779,26 L39.3419457,26 L39.3419459,26 C35.2898009,26.0018244 32.0045835,29.2593759 32,33.2801428 L32,81.6508935 L32,81.6507073 C32.005418,85.6710748 35.2900236,88.928146 39.3417599,88.9310345 L74.6613366,88.9310345 L74.6613367,88.9310345 C78.7114193,88.9255632 81.9935584,85.6696121 82,81.6508917 L82,33.2801409 L82,33.2803272 C81.994582,29.2600335 78.7100879,26.0029499 74.6584259,26 L74.6581779,26 Z M39.3419457,29.7592451 L74.6581779,29.7592451 C76.6159289,29.7592451 78.2081651,31.3391954 78.2081651,33.2801182 L78.2081651,34.505619 C78.1681089,34.5784862 78.1247145,34.6496978 78.0946725,34.7308456 C75.624538,41.2276698 66.9423672,45.7636165 56.9783644,45.7636165 C47.0844731,45.7636165 38.4156123,41.2673642 35.8987843,34.8318178 C35.8704111,34.7572944 35.8286858,34.6910509 35.7919677,34.6231519 L35.7919677,33.2817265 C35.7919677,31.3391444 37.3842039,29.7592451 39.3402827,29.7592451 L39.3419457,29.7592451 Z M74.6581779,85.1716797 L39.3419457,85.1716797 L39.3419456,85.1716797 C37.3823737,85.1707659 35.7938041,83.5952394 35.7919584,81.6508567 L35.7919584,41.4694292 C40.4568417,46.3879827 48.3429006,49.5229347 56.978378,49.5229347 C65.6572105,49.5229347 73.5549691,46.3747328 78.2082147,41.4246892 L78.2082147,81.6508567 L78.2082147,81.6507654 C78.2064253,83.5945029 76.6189081,85.1698053 74.6599927,85.1716797 L74.6581779,85.1716797 Z" id="形状" fill="#2C2222" fill-rule="nonzero"></path>
                    <path d="M39.3419457,29.7592451 L74.6581779,29.7592451 C76.6159289,29.7592451 78.2081651,31.3391954 78.2081651,33.2801182 L78.2081651,34.505619 C78.1681089,34.5784862 78.1247145,34.6496978 78.0946725,34.7308456 C75.624538,41.2276698 66.9423672,45.7636165 56.9783644,45.7636165 C47.0844731,45.7636165 38.4156123,41.2673642 35.8987843,34.8318178 C35.8704111,34.7572944 35.8286858,34.6910509 35.7919677,34.6231519 L35.7919677,33.2817265 C35.7919677,31.3391444 37.3842039,29.7592451 39.3402827,29.7592451 L39.3419457,29.7592451 Z" id="路径" fill-opacity="0.5" fill="#F03346"></path>
                </g>
            </g>
        </g>
    </g>
</svg>