<?xml version="1.0" encoding="UTF-8"?>
<svg width="92px" height="70px" viewBox="0 0 92 70" version="1.1" xmlns="http://www.w3.org/2000/svg" xmlns:xlink="http://www.w3.org/1999/xlink">
    <!-- Generator: Sketch 52.1 (67048) - http://www.bohemiancoding.com/sketch -->
    <title>top_up_success_bg_icon</title>
    <desc>Created with Sketch.</desc>
    <defs>
        <linearGradient x1="50%" y1="0%" x2="50%" y2="100%" id="linearGradient-1">
            <stop stop-color="#519DFD" offset="0%"></stop>
            <stop stop-color="#2864FA" offset="100%"></stop>
        </linearGradient>
        <path d="M5.68434189e-14,13.3744254 L77,13.3744254 L77,42 C77,44.7614237 74.7614237,47 72,47 L5,47 C2.23857625,47 5.96342327e-14,44.7614237 5.68434189e-14,42 L5.68434189e-14,13.3744254 Z M5,-1.41398004e-12 L72,-1.41486822e-12 C74.7614237,-1.41537549e-12 77,2.23857625 77,5 L77,10.8444785 L-5.68434189e-14,10.8444785 L-5.68434189e-14,5 C-5.71815957e-14,2.23857625 2.23857625,-1.41436096e-12 5,-1.41486822e-12 Z" id="path-2"></path>
        <filter x="-11.0%" y="-9.6%" width="122.1%" height="138.3%" filterUnits="objectBoundingBox" id="filter-3">
            <feOffset dx="0" dy="5" in="SourceAlpha" result="shadowOffsetOuter1"></feOffset>
            <feGaussianBlur stdDeviation="2" in="shadowOffsetOuter1" result="shadowBlurOuter1"></feGaussianBlur>
            <feColorMatrix values="0 0 0 0 0.180392157   0 0 0 0 0.42745098   0 0 0 0 0.980392157  0 0 0 0.280457428 0" type="matrix" in="shadowBlurOuter1"></feColorMatrix>
        </filter>
        <linearGradient x1="50%" y1="0%" x2="50%" y2="100%" id="linearGradient-4">
            <stop stop-color="#67AAFF" offset="0%"></stop>
            <stop stop-color="#2864FA" offset="100%"></stop>
        </linearGradient>
        <path d="M0,11.5 C0,17.8013699 5.19863014,23 11.5,23 C17.8013699,23 23,17.8013699 23,11.5 C23,5.19863014 17.8013699,0 11.5,0 C5.19863014,0 0,5.19863014 0,11.5 Z" id="path-5"></path>
        <filter x="-41.3%" y="-23.9%" width="182.6%" height="182.6%" filterUnits="objectBoundingBox" id="filter-6">
            <feOffset dx="0" dy="4" in="SourceAlpha" result="shadowOffsetOuter1"></feOffset>
            <feGaussianBlur stdDeviation="2.5" in="shadowOffsetOuter1" result="shadowBlurOuter1"></feGaussianBlur>
            <feColorMatrix values="0 0 0 0 0.536617772   0 0 0 0 0.405422564   0 0 0 0 0.036132348  0 0 0 0.311311141 0" type="matrix" in="shadowBlurOuter1"></feColorMatrix>
        </filter>
        <linearGradient x1="50%" y1="100%" x2="50%" y2="0%" id="linearGradient-7">
            <stop stop-color="#519DFD" offset="0%"></stop>
            <stop stop-color="#2864FA" offset="100%"></stop>
        </linearGradient>
    </defs>
    <g id="Page-3" stroke="none" stroke-width="1" fill="none" fill-rule="evenodd">
        <g id="Custom-Preset" transform="translate(-336.000000, -463.000000)">
            <g id="top_up_success_bg_icon" transform="translate(336.000000, 464.000000)">
                <g id="分组-3" transform="translate(5.000000, 0.000000)">
                    <g id="分组-2" transform="translate(0.000000, 13.000000)">
                        <g id="矩形-2">
                            <use fill="black" fill-opacity="1" filter="url(#filter-3)" xlink:href="#path-2"></use>
                            <use fill="url(#linearGradient-1)" fill-rule="evenodd" xlink:href="#path-2"></use>
                        </g>
                        <path d="M24.8768683,13.3744254 L12.8925114,47 L5,47 C2.23857625,47 5.96342327e-14,44.7614237 5.68434189e-14,42 L5.68434189e-14,13.3744254 L24.8768683,13.3744254 Z M29.643594,-1.4406254e-12 L25.7785566,10.8444785 L-5.68434189e-14,10.8444785 L-5.68434189e-14,5 C-5.71815957e-14,2.23857625 2.23857625,-1.44100631e-12 5,-1.44151358e-12 L29.643594,-1.44240175e-12 Z" id="矩形-2" fill="url(#linearGradient-4)"></path>
                        <polygon id="矩形" fill-opacity="0.103374094" fill="#FFFFFF" points="7 23 41 23 36.6203841 29 7 29"></polygon>
                        <polygon id="矩形" fill-opacity="0.103374094" fill="#FFFFFF" points="7 33 33 33 28.862655 39 7 39"></polygon>
                        <g id="外卖1" transform="translate(48.000000, 22.000000)" fill="#FFFFFF" fill-rule="nonzero">
                            <path d="M19.0676389,9.51213542 L19.0836111,9.49908219 L18.1061111,8.99979603 L18.1061111,6.50010198 L18.8184722,4.67591271 C18.9302778,4.49643075 19.0101389,4.30063227 19.0516667,4.08525392 L19.0836111,4.00040791 L19.06125,3.98409138 C19.0708333,3.90577198 19.0836111,3.83071588 19.0836111,3.74913318 C19.0836111,2.78319396 18.3169444,2 17.3713889,2 C17.2883333,2 17.2084722,2.01305323 17.1254167,2.02610647 L17.1254167,2 L13.2122222,2 L13.2122222,3.50112176 L14.6816667,3.50112176 L14.6816667,6.50010198 L12.50625,10.4976545 L8.80708335,10.4976545 L9.62166666,9.11074852 L9.90597222,8.6245156 L10.2733333,8.00122374 L10.2733333,6.50010198 L0.97750001,6.50010198 L0.97750001,8.00122374 L2.44694445,8.00122374 L0,11.4994901 L0,14.0024475 L0.012777778,14.0024475 C0.140555558,16.231287 1.94541667,18 4.15916667,18 C6.20680556,18 7.90305556,16.4890883 8.25125001,14.5017336 L14.74875,14.5017336 C15.0969445,16.4890883 16.7931945,18 18.8408333,18 C21.1376389,18 23,16.0974913 23,13.7511727 C23,11.4831736 21.2590278,9.63287782 19.0676389,9.51213542 Z M4.15916667,15.4383031 C3.24555557,15.4383031 2.5076389,14.6844789 2.5076389,13.7511727 C2.5076389,12.8178666 3.24555557,12.0640424 4.15916667,12.0640424 C5.07277777,12.0640424 5.81069444,12.8178666 5.81069444,13.7511727 C5.81069444,14.6812156 5.07277777,15.4383031 4.15916667,15.4383031 Z M18.8408333,15.4383031 C17.9272222,15.4383031 17.1893056,14.6844789 17.1893056,13.7511727 C17.1893056,12.8178666 17.9304167,12.0640424 18.8408333,12.0640424 C19.7544444,12.0640424 20.4923611,12.8178666 20.4923611,13.7511727 C20.4923611,14.6812156 19.75125,15.4383031 18.8408333,15.4383031 Z" id="形状"></path>
                            <path d="M9.52986543,0 L1.47319412,0 C1.21030849,0 0.999999983,0.204747775 1,0.45400594 L1,4.54599406 C1,4.79821958 1.21030851,5 1.47319412,5 L9.52677267,5 C9.78965829,5 9.9999668,4.79821958 9.9999668,4.54599406 L9.9999668,0.45400594 C10.0030596,0.204747775 9.78965829,0 9.52986543,0 Z M8.10719027,2.27299704 L2.89586929,2.27299704 L2.89586929,1.36498516 L8.10719027,1.36498516 L8.10719027,2.27299704 Z" id="形状"></path>
                        </g>
                    </g>
                    <g id="金币" transform="translate(27.000000, 0.000000)">
                        <g id="路径">
                            <use fill="black" fill-opacity="1" filter="url(#filter-6)" xlink:href="#path-5"></use>
                            <use fill="#FBE945" fill-rule="evenodd" xlink:href="#path-5"></use>
                        </g>
                        <path d="M3,11.5 C3,16.2053571 6.79464286,20 11.5,20 C16.2053571,20 20,16.2053571 20,11.5 C20,6.79464286 16.2053571,3 11.5,3 C6.79464286,3 3,6.79464286 3,11.5 Z" id="路径" fill="#FBB11B"></path>
                        <path d="M18.35,6.65 C17,5.6 15.2,5 13.4,5 C8.75,5 5,8.75 5,13.4 C5,15.2 5.6,17 6.65,18.35 C8,19.4 9.8,20 11.6,20 C16.25,20 20,16.25 20,11.6 C20,9.8 19.4,8 18.35,6.65 Z" id="路径" fill="#FDC72F"></path>
                        <g id="分组" transform="translate(6.000000, 5.000000)">
                            <polyline id="路径" fill="#FBB11B" points="6.5 1 8.23684211 4.47368421 12 5.19736842 9.39473684 8.09210526 9.82894737 12 6.5 10.2631579 3.02631579 12 3.60526316 8.09210526 1 5.19736842 4.61842105 4.47368421 6.5 1"></polyline>
                            <polyline id="路径" fill="#FBE945" points="5.5 0 7.38157895 3.47368421 11 4.19736842 8.39473684 7.09210526 8.82894737 11 5.5 9.26315789 2.17105263 11 2.60526316 7.09210526 0 4.19736842 3.61842105 3.47368421 5.5 0"></polyline>
                        </g>
                    </g>
                </g>
                <circle id="椭圆形" fill="url(#linearGradient-7)" cx="3.5" cy="30.5" r="3.5"></circle>
                <circle id="椭圆形" fill="url(#linearGradient-7)" cx="82.5" cy="9.5" r="2.5"></circle>
                <circle id="椭圆形" fill="url(#linearGradient-7)" cx="88.5" cy="44.5" r="3.5"></circle>
            </g>
        </g>
    </g>
</svg>