<svg width="186" height="109" xmlns="http://www.w3.org/2000/svg"><g fill="none" fill-rule="evenodd"><g transform="rotate(-10 171.01 24.64)"><path d="M177.5 69.302c-1.189-.487-2-1.805-2-3.302s.811-2.815 2-3.302v-.396c-1.189-.487-2-1.805-2-3.302s.811-2.815 2-3.302v-.396c-1.189-.487-2-1.805-2-3.302s.811-2.815 2-3.302v-.396c-1.189-.487-2-1.805-2-3.302s.811-2.815 2-3.302v-.396c-1.189-.487-2-1.805-2-3.302s.811-2.815 2-3.302v-.396c-1.189-.487-2-1.805-2-3.302s.811-2.815 2-3.302v-.396c-1.189-.487-2-1.805-2-3.302s.811-2.815 2-3.302v-.396c-1.189-.487-2-1.805-2-3.302s.811-2.815 2-3.302V11c0-5.799-4.701-10.5-10.5-10.5H11C5.201.5.5 5.201.5 11v2.5c1.68 0 3 1.585 3 3.5s-1.32 3.5-3 3.5c1.68 0 3 1.585 3 3.5s-1.32 3.5-3 3.5c1.68 0 3 1.585 3 3.5s-1.32 3.5-3 3.5c1.68 0 3 1.585 3 3.5s-1.32 3.5-3 3.5c1.68 0 3 1.585 3 3.5s-1.32 3.5-3 3.5c1.68 0 3 1.585 3 3.5s-1.32 3.5-3 3.5c1.68 0 3 1.585 3 3.5s-1.32 3.5-3 3.5c1.68 0 3 1.585 3 3.5s-1.32 3.5-3 3.5v.5c0 5.799 4.701 10.5 10.5 10.5h156c5.799 0 10.5-4.701 10.5-10.5v-.698z" stroke="#8DD133" fill="#F3FFE2"/><rect stroke="#9ADF3E" x="9.5" y="6.5" width="160" height="68" rx="11"/><circle stroke="#8DD133" fill="#F3FFE2" cx="165" cy="11" r="7"/><circle stroke="#8DD133" fill="#F3FFE2" cx="13" cy="70" r="7"/><path stroke="#8DD133" d="M13.5 24.5h1v34h-1zM165.5 24.5h1v34h-1z"/></g><g transform="translate(4 14)"><path d="M177.5 69.302c-1.189-.487-2-1.805-2-3.302s.811-2.815 2-3.302v-.396c-1.189-.487-2-1.805-2-3.302s.811-2.815 2-3.302v-.396c-1.189-.487-2-1.805-2-3.302s.811-2.815 2-3.302v-.396c-1.189-.487-2-1.805-2-3.302s.811-2.815 2-3.302v-.396c-1.189-.487-2-1.805-2-3.302s.811-2.815 2-3.302v-.396c-1.189-.487-2-1.805-2-3.302s.811-2.815 2-3.302v-.396c-1.189-.487-2-1.805-2-3.302s.811-2.815 2-3.302v-.396c-1.189-.487-2-1.805-2-3.302s.811-2.815 2-3.302V11c0-5.799-4.701-10.5-10.5-10.5H11C5.201.5.5 5.201.5 11v2.5c1.68 0 3 1.585 3 3.5s-1.32 3.5-3 3.5c1.68 0 3 1.585 3 3.5s-1.32 3.5-3 3.5c1.68 0 3 1.585 3 3.5s-1.32 3.5-3 3.5c1.68 0 3 1.585 3 3.5s-1.32 3.5-3 3.5c1.68 0 3 1.585 3 3.5s-1.32 3.5-3 3.5c1.68 0 3 1.585 3 3.5s-1.32 3.5-3 3.5c1.68 0 3 1.585 3 3.5s-1.32 3.5-3 3.5c1.68 0 3 1.585 3 3.5s-1.32 3.5-3 3.5v.5c0 5.799 4.701 10.5 10.5 10.5h156c5.799 0 10.5-4.701 10.5-10.5v-.698z" stroke="#76B226" fill="#E5FFC2"/><path d="M56.7 46.22c-.6 0-1.11.16-1.53.48-.42.32-.63.7-.63 1.14 0 .4.21.76.63 1.08.42.32.93.48 1.53.48h1.38c.56 0 1.13.17 1.71.51.58.34 1.01.79 1.29 1.35l.54 1.38c.32.56.68 1.02 1.08 1.38.4.36.76.54 1.08.54.32 0 .6-.2.84-.6.24-.4.36-.9.36-1.5v-1.74c0-.56.21-1.04.63-1.44.42-.4.91-.6 1.47-.6h.78c.6 0 1.1.2 1.5.6.4.4.6.88.6 1.44v2.94c0 .56-.14 1.19-.42 1.89-.28.7-.64 1.25-1.08 1.65l-1.38 1.44c-.44.44-.82.8-1.14 1.08-.32.28-.52.42-.6.42-.08 0-.07.17.03.51.1.34.27.73.51 1.17.2.44.54.83 1.02 1.17.48.34.94.51 1.38.51.48 0 .88.2 1.2.6.32.4.48.9.48 1.5v1.38c0 .56-.2 1.05-.6 1.47-.4.42-.9.63-1.5.63H65.4c-.56 0-1.13-.19-1.71-.57-.58-.38-.99-.83-1.23-1.35L57.6 56.42c-.24-.56-.56-1.02-.96-1.38-.4-.36-.76-.54-1.08-.54-.28 0-.52.2-.72.6-.2.4-.3.88-.3 1.44v4.86c0 .6.21 1.1.63 1.5.42.4.93.6 1.53.6h.84c.56 0 1.04.2 1.44.6.4.4.6.9.6 1.5v1.38c0 .56-.2 1.05-.6 1.47-.4.42-.88.63-1.44.63h-1.98c-.56 0-1.19-.16-1.89-.48-.7-.32-1.23-.7-1.59-1.14l-1.14-1.2c-.44-.44-.79-1.02-1.05-1.74s-.39-1.36-.39-1.92V24.44c0-.56.22-1.03.66-1.41.44-.38.94-.57 1.5-.57h16.2c.6 0 1.1.2 1.5.6.4.4.6.88.6 1.44v15.12c0 .6-.13 1.26-.39 1.98s-.57 1.3-.93 1.74L67.5 44.6c-.4.44-.93.82-1.59 1.14-.66.32-1.29.48-1.89.48H56.7zM30.18 63.44c.16-.4.34-.6.54-.6s.36-.2.48-.6c.12-.4.18-.9.18-1.5V41.72c0-.6-.06-1.1-.18-1.5-.12-.4-.28-.6-.48-.6-.2 0-.37-.21-.51-.63-.14-.42-.21-.93-.21-1.53v-1.32c0-.56.2-1.04.6-1.44.4-.4.88-.6 1.44-.6h2.34c.56 0 1.04-.22 1.44-.66.4-.44.6-.94.6-1.5V16.1c0-.56.21-1.05.63-1.47.42-.42.89-.63 1.41-.63h.9c.56 0 1.05.21 1.47.63.42.42.63.91.63 1.47v15.84c0 .56.2 1.06.6 1.5.4.44.9.66 1.5.66h2.28c.56 0 1.05.2 1.47.6.42.4.63.88.63 1.44v1.32c0 .6-.07 1.11-.21 1.53-.14.42-.31.63-.51.63-.24 0-.43.2-.57.6-.14.4-.21.9-.21 1.5v19.02c0 .6.07 1.1.21 1.5.14.4.33.6.57.6.2 0 .37.21.51.63.14.42.21.93.21 1.53v1.32c0 .56-.14 1.05-.42 1.47-.28.42-.58.63-.9.63-.32 0-.72-.18-1.2-.54-.48-.36-.88-.78-1.2-1.26l-.54-.84c-.32-.48-.58-1.1-.78-1.86-.2-.76-.3-1.42-.3-1.98V41.72c0-.6-.05-1.1-.15-1.5-.1-.4-.25-.6-.45-.6-.12 0-.24.2-.36.6-.12.4-.18.9-.18 1.5v25.26c0 .56-.21 1.05-.63 1.47-.42.42-.91.63-1.47.63h-.9c-.52 0-.99-.21-1.41-.63-.42-.42-.63-.91-.63-1.47V41.72c0-.6-.05-1.1-.15-1.5-.1-.4-.23-.6-.39-.6s-.29.2-.39.6c-.1.4-.15.9-.15 1.5v20.22c0 .56-.12 1.22-.36 1.98s-.52 1.36-.84 1.8l-.48.9c-.32.52-.71.95-1.17 1.29-.46.34-.85.51-1.17.51-.4 0-.72-.21-.96-.63-.24-.42-.36-.91-.36-1.47V65c0-.6.06-1.12.18-1.56zM49.5 17.72c0-.6.2-1.1.6-1.5.4-.4.9-.6 1.5-.6h10.68c.6 0 1.1-.08 1.5-.24.4-.16.6-.34.6-.54 0-.24.21-.44.63-.6.42-.16.93-.24 1.53-.24h1.32c.6 0 1.1.14 1.5.42.4.28.6.6.6.96 0 .4-.15.87-.45 1.41-.3.54-.69.99-1.17 1.35l-1.2 1.08c-.44.44-1.02.79-1.74 1.05s-1.36.39-1.92.39H51.6c-.6 0-1.1-.2-1.5-.6-.4-.4-.6-.9-.6-1.5v-.84zm-1.56 8.46c0 .56-.12 1.21-.36 1.95s-.52 1.35-.84 1.83l-.66.96c-.32.52-.71.94-1.17 1.26-.46.32-.87.48-1.23.48-.32 0-.58-.21-.78-.63-.2-.42-.3-.91-.3-1.47v-1.38c0-.56.06-1.05.18-1.47.12-.42.26-.63.42-.63.16 0 .3-.2.42-.6.12-.4.18-.9.18-1.5v-7.74c0-.6.2-1.1.6-1.5.4-.4.88-.6 1.44-.6.56 0 1.05.2 1.47.6.42.4.63.9.63 1.5v8.94zM31.98 15.14c.6 0 1.1.2 1.5.6.4.4.6.9.6 1.5v7.74c0 .6.06 1.1.18 1.5.12.4.26.6.42.6.2 0 .36.21.48.63.12.42.18.91.18 1.47v1.38c0 .56-.12 1.05-.36 1.47-.24.42-.52.63-.84.63-.32 0-.7-.16-1.14-.48-.44-.32-.82-.76-1.14-1.32l-.6-.84c-.36-.52-.66-1.15-.9-1.89S30 26.74 30 26.18v-8.94c0-.6.2-1.1.6-1.5.4-.4.86-.6 1.38-.6zM56.7 27.98c-.6 0-1.11.19-1.53.57-.42.38-.63.83-.63 1.35 0 .52.21.96.63 1.32.42.36.93.54 1.53.54h6.18c.56 0 1.05-.18 1.47-.54.42-.36.63-.8.63-1.32s-.21-.97-.63-1.35c-.42-.38-.91-.57-1.47-.57H56.7zm6.18 12.66c.56 0 1.05-.16 1.47-.48.42-.32.63-.7.63-1.14 0-.44-.21-.83-.63-1.17-.42-.34-.91-.51-1.47-.51H56.7c-.6 0-1.11.17-1.53.51-.42.34-.63.73-.63 1.17 0 .44.21.82.63 1.14.42.32.93.48 1.53.48h6.18zm16.584-.09c0-2.774 1.016-5.161 3.047-7.163 2.031-2.002 4.453-3.003 7.265-3.003 2.852 0 5.284 1.006 7.295 3.017 2.012 2.012 3.018 4.444 3.018 7.295 0 2.832-1.006 5.259-3.018 7.28-2.011 2.022-4.433 3.033-7.265 3.033-2.89 0-5.337-1.011-7.34-3.032-2.001-2.022-3.002-4.498-3.002-7.427zm30.069-24.51c0-.56.2-1.04.6-1.44.4-.4.88-.6 1.44-.6h35.52c.56 0 1.05.2 1.47.6.42.4.63.88.63 1.44v1.38c0 .56-.21 1.04-.63 1.44-.42.4-.91.6-1.47.6h-6.78c-.6 0-1.1.19-1.5.57-.4.38-.6.85-.6 1.41 0 .56.2 1.04.6 1.44.4.4.9.6 1.5.6h6.9c.56 0 1.04.2 1.44.6.4.4.6.9.6 1.5v8.88c0 .6-.14 1.24-.42 1.92-.28.68-.62 1.24-1.02 1.68l-1.56 1.44c-.36.4-.89.74-1.59 1.02-.7.28-1.33.42-1.89.42h-31.08c-.6 0-1.1-.2-1.5-.6-.4-.4-.6-.9-.6-1.5V25.58c0-.6.2-1.1.6-1.5.4-.4.9-.6 1.5-.6h7.08c.6 0 1.1-.2 1.5-.6.4-.4.6-.88.6-1.44 0-.56-.2-1.03-.6-1.41-.4-.38-.9-.57-1.5-.57h-7.2c-.56 0-1.04-.2-1.44-.6-.4-.4-.6-.88-.6-1.44v-1.38zm0 37.74c0-.56.2-1.04.6-1.44.4-.4.88-.6 1.44-.6h35.52c.56 0 1.05.2 1.47.6.42.4.63.88.63 1.44v1.32c0 .56-.21 1.05-.63 1.47-.42.42-.91.63-1.47.63h-12.12c-.6 0-1.1.21-1.5.63-.4.42-.6.91-.6 1.47v3.3c0 .56-.15 1.19-.45 1.89-.3.7-.67 1.23-1.11 1.59l-1.44 1.5c-.44.44-1.01.8-1.71 1.08s-1.33.42-1.89.42h-1.08c-.56 0-1.05-.21-1.47-.63-.42-.42-.63-.91-.63-1.47v-1.32c0-.6.21-1.1.63-1.5.42-.4.91-.6 1.47-.6.6 0 1.11-.2 1.53-.6.42-.4.63-.9.63-1.5V59.3c0-.56-.21-1.05-.63-1.47-.42-.42-.93-.63-1.53-.63h-13.62c-.56 0-1.04-.21-1.44-.63-.4-.42-.6-.91-.6-1.47v-1.32zm0-8.58c0-.6.2-1.1.6-1.5.4-.4.88-.6 1.44-.6h35.52c.56 0 1.05.2 1.47.6.42.4.63.9.63 1.5v1.32c0 .56-.21 1.05-.63 1.47-.42.42-.91.63-1.47.63h-35.52c-.56 0-1.04-.21-1.44-.63-.4-.42-.6-.91-.6-1.47V45.2zm33.42 14.16c.56 0 1.05.2 1.47.6.42.4.63.9.63 1.5s.2 1.1.6 1.5c.4.4.88.6 1.44.6.56 0 1.05.2 1.47.6.42.4.63.9.63 1.5v1.32c0 .56-.21 1.05-.63 1.47-.42.42-.91.63-1.47.63h-1.08c-.6 0-1.24-.14-1.92-.42-.68-.28-1.24-.64-1.68-1.08l-1.5-1.5c-.4-.36-.73-.89-.99-1.59-.26-.7-.39-1.33-.39-1.89v-1.14c0-.6.19-1.1.57-1.5.38-.4.85-.6 1.41-.6h1.44zm-33.42 6.3c0-.6.2-1.1.6-1.5.4-.4.86-.6 1.38-.6.6 0 1.1-.2 1.5-.6.4-.4.6-.9.6-1.5s.21-1.1.63-1.5c.42-.4.91-.6 1.47-.6h1.26c.6 0 1.11.2 1.53.6.42.4.63.9.63 1.5v1.14c0 .56-.14 1.19-.42 1.89-.28.7-.64 1.23-1.08 1.59l-1.38 1.5c-.44.44-1 .8-1.68 1.08-.68.28-1.3.42-1.86.42h-1.14c-.56 0-1.04-.21-1.44-.63-.4-.42-.6-.91-.6-1.47v-1.32zm16.86-32.28c0 .56.21 1.04.63 1.44.42.4.91.6 1.47.6h2.16c.56 0 1.04-.2 1.44-.6.4-.4.6-.88.6-1.44v-2.34c0-.56-.2-1.04-.6-1.44-.4-.4-.88-.6-1.44-.6h-2.16c-.56 0-1.05.2-1.47.6-.42.4-.63.88-.63 1.44v2.34zm-11.34 0c0 .56.2 1.04.6 1.44.4.4.88.6 1.44.6h1.68c.6 0 1.1-.2 1.5-.6.4-.4.6-.88.6-1.44v-2.34c0-.56-.2-1.04-.6-1.44-.4-.4-.9-.6-1.5-.6h-1.68c-.56 0-1.04.2-1.44.6-.4.4-.6.88-.6 1.44v2.34zm25.26-4.38c-.6 0-1.1.2-1.5.6-.4.4-.6.88-.6 1.44v2.34c0 .56.2 1.04.6 1.44.4.4.9.6 1.5.6h1.26c.6 0 1.1-.2 1.5-.6.4-.4.6-.88.6-1.44v-2.34c0-.56-.2-1.04-.6-1.44-.4-.4-.9-.6-1.5-.6h-1.26zm-8.22-6.12c.4-.4.6-.88.6-1.44 0-.56-.2-1.03-.6-1.41-.4-.38-.88-.57-1.44-.57h-2.16c-.56 0-1.05.19-1.47.57-.42.38-.63.85-.63 1.41 0 .56.21 1.04.63 1.44.42.4.91.6 1.47.6h2.16c.56 0 1.04-.2 1.44-.6z" fill="#69B308"/><rect stroke="#76B226" x="9.5" y="6.5" width="160" height="68" rx="11"/><circle stroke="#76B226" fill="#E5FFC2" cx="13" cy="11" r="7"/><circle stroke="#76B226" fill="#E5FFC2" cx="165" cy="11" r="7"/><circle stroke="#76B226" fill="#E5FFC2" cx="13" cy="70" r="7"/><circle stroke="#76B226" fill="#E5FFC2" cx="165" cy="70" r="7"/><path stroke="#76B226" d="M13.5 24.5h1v34h-1zM165.5 24.5h1v34h-1z"/></g></g></svg>