<?xml version="1.0" encoding="UTF-8"?>
<svg width="337px" height="323px" viewBox="0 0 337 323" version="1.1" xmlns="http://www.w3.org/2000/svg" xmlns:xlink="http://www.w3.org/1999/xlink">
    <!-- Generator: Sketch 52.1 (67048) - http://www.bohemiancoding.com/sketch -->
    <title>invite_no_limit</title>
    <desc>Created with Sketch.</desc>
    <defs>
        <linearGradient x1="45.404225%" y1="3.76224861%" x2="12.0332616%" y2="88.6216438%" id="linearGradient-1">
            <stop stop-color="#FE4949" offset="0%"></stop>
            <stop stop-color="#FF6969" offset="43.2203848%"></stop>
            <stop stop-color="#FA1919" offset="100%"></stop>
        </linearGradient>
        <polygon id="path-2" points="169.894355 0 301 0 0 286 0 160.603406"></polygon>
        <filter x="-10.8%" y="-9.6%" width="121.6%" height="122.7%" filterUnits="objectBoundingBox" id="filter-3">
            <feOffset dx="0" dy="5" in="SourceAlpha" result="shadowOffsetOuter1"></feOffset>
            <feGaussianBlur stdDeviation="10" in="shadowOffsetOuter1" result="shadowBlurOuter1"></feGaussianBlur>
            <feColorMatrix values="0 0 0 0 0.5546875   0 0 0 0 0.0952603119   0 0 0 0 0.0952603119  0 0 0 0.177649457 0" type="matrix" in="shadowBlurOuter1"></feColorMatrix>
        </filter>
        <filter x="-7.8%" y="-6.5%" width="115.6%" height="116.4%" filterUnits="objectBoundingBox" id="filter-4">
            <feGaussianBlur stdDeviation="2.5" in="SourceAlpha" result="shadowBlurInner1"></feGaussianBlur>
            <feOffset dx="2" dy="2" in="shadowBlurInner1" result="shadowOffsetInner1"></feOffset>
            <feComposite in="shadowOffsetInner1" in2="SourceAlpha" operator="arithmetic" k2="-1" k3="1" result="shadowInnerInner1"></feComposite>
            <feColorMatrix values="0 0 0 0 0.985863095   0 0 0 0 0.623127404   0 0 0 0 0.623127404  0 0 0 1 0" type="matrix" in="shadowInnerInner1" result="shadowMatrixInner1"></feColorMatrix>
            <feOffset dx="-1" dy="-1" in="SourceAlpha" result="shadowOffsetInner2"></feOffset>
            <feComposite in="shadowOffsetInner2" in2="SourceAlpha" operator="arithmetic" k2="-1" k3="1" result="shadowInnerInner2"></feComposite>
            <feColorMatrix values="0 0 0 0 1   0 0 0 0 1   0 0 0 0 1  0 0 0 0.288411458 0" type="matrix" in="shadowInnerInner2" result="shadowMatrixInner2"></feColorMatrix>
            <feMerge>
                <feMergeNode in="shadowMatrixInner1"></feMergeNode>
                <feMergeNode in="shadowMatrixInner2"></feMergeNode>
            </feMerge>
        </filter>
        <path d="M38.4556909,107.351398 L38.4556909,124.351398 C40.9699767,123.912688 43.7128338,123.41914 46.4556909,122.870753 C44.3414052,118.703011 42.9128338,113.603011 41.9414052,107.351398 L38.4556909,107.351398 Z M48.5163511,86.7491072 L38.5163511,86.7491072 L38.5163511,94.7491072 L48.5163511,94.7491072 L48.5163511,86.7491072 Z M38.8699045,95.7950487 L38.8699045,104.795049 L48.8699045,104.795049 L48.8699045,95.7950487 L38.8699045,95.7950487 Z M49.4054384,106.40165 L43.4054384,106.40165 C44.3784114,109.732819 45.8378708,112.77178 47.6216546,115.40165 C49.02706,113.297754 50.4865195,110.667884 51.4054384,108.797754 C51.1892222,108.856196 50.9189519,108.856196 50.7027357,108.856196 L49.4054384,108.856196 L49.4054384,106.40165 Z M18.3889341,115.855709 L21.1475548,115.855709 C21.6647962,115.855709 21.9521525,115.74586 22.2969801,115.581088 C22.9866353,115.141694 23.3889341,114.31783 23.3889341,112.834876 C23.3889341,109.100027 22.4119226,104.87086 19.7107732,101.465557 C20.5153709,97.7856331 21.5498537,91.2496483 21.9521525,86.8557089 L18.3889341,86.8557089 L18.3889341,115.855709 Z M52.9405305,108.790845 L60.1392276,113.869402 C59.7516054,114.47662 58.9763611,114.531822 57.8688693,114.200612 C56.0415077,115.028637 52.3867846,116.243075 48.7320614,116.960697 C52.3867846,121.211228 57.093625,124.247321 62.2988367,125.792969 L62.1880875,126.400187 C59.530107,127.173011 57.3151233,129.601886 56.4845044,133.3004 C52.2206608,130.70592 49.1196836,127.393818 46.8493253,122.92248 C44.578967,124.744136 40.2043741,128.11144 34.8330386,131.533945 C34.1685435,132.858786 33.2271754,133.686811 32.3965566,134.073223 L28.5757097,125.84817 C30.9014426,124.688935 31.2890647,124.026514 31.2890647,122.480867 L31.2890647,89.3046458 C30.9568171,89.3598475 30.5138204,89.4150492 30.0154491,89.4150492 C27.9665891,92.8927562 24.4779898,98.3577244 21.2662634,101.890633 C27.7450908,105.257937 30.569195,111.054115 30.569195,115.691058 C30.569195,121.211228 28.2434621,124.85454 21.3770126,124.909741 C21.3770126,122.812077 21.1555142,119.720782 20.6017683,118.727151 C20.2695207,118.119932 19.6050256,117.567915 18.6082829,117.181504 L18.6082829,131.644349 C18.6082829,132.196366 16.3932992,133.96282 12.6278269,133.96282 L11.2988367,133.96282 L11.2988367,82.7908454 L19.3281526,85.7717371 L21.4877618,85.7717371 L25.3086087,82.0732233 L31.2890647,87.5381915 L31.2890647,82.680442 L39.539879,85.8821405 L48.6766868,85.8821405 L52.1652862,82.128425 L59.1424849,87.4829898 C58.8102373,87.9246033 58.1457422,88.3662169 56.9828758,88.6422254 L56.9828758,106.969189 C56.9828758,107.355601 55.044765,108.29403 52.9405305,108.790845 Z M73.3361563,118.255204 L77.3361563,118.255204 L77.3361563,104.255204 L73.3361563,104.255204 L73.3361563,118.255204 Z M77.3361563,88.6988546 L73.3361563,88.6988546 L73.3361563,102.698855 L77.3361563,102.698855 L77.3361563,88.6988546 Z M81.1116752,84.1590097 L88.1039232,89.5612375 C87.7059904,90.0624751 86.9669723,90.5080196 85.8300214,90.786485 L85.8300214,123.868168 C85.7731739,124.369406 82.134931,125.928812 79.4062488,125.928812 L78.1556028,125.928812 L78.1556028,120.415198 L73.6646467,120.415198 L73.6646467,126.931287 C73.6646467,127.432525 71.3338974,129.15901 67.4682643,129.15901 L66.1039232,129.15901 L66.1039232,84.9944058 L74.4036648,88.0018315 L77.5871273,88.0018315 L81.1116752,84.1590097 Z M86.806719,101.908525 L87.2933233,101.633883 C104.648877,107.291495 96.8091407,121.517916 89.9966805,114.926524 C90.1588819,110.422406 88.7531362,105.588719 86.806719,101.908525 Z M109.470207,94.2139483 L112.337328,89.4463576 C112.337328,89.4463576 116.32881,93.4378288 118.352661,95.9324984 C118.184006,96.5423065 117.565608,96.819492 116.778555,96.819492 L109.470207,96.819492 L109.470207,124.815228 C109.470207,130.3035 108.064756,133.241667 98.39525,134.073223 C98.1141597,131.412242 97.6644152,129.582818 96.3713999,128.363202 C95.0783846,127.088149 93.6729331,126.256592 89.7938871,125.591347 L89.7938871,124.870665 C89.7938871,124.870665 98.0579416,125.369599 99.6882653,125.369599 C100.70019,125.369599 101.037499,124.981539 101.037499,124.260857 L101.037499,96.819492 L85.802405,96.819492 L85.3526606,95.2672532 L101.037499,95.2672532 L101.037499,82.0732233 L111.550276,83.015654 C111.437839,83.8472105 110.875659,84.4015815 109.470207,84.6233299 L109.470207,94.2139483 Z M122.308505,85.1792552 L122.736258,84.8955538 C138.02843,87.4488664 131.826011,99.7047668 125.837468,94.7116222 C125.570122,91.3639457 123.912579,87.6758275 122.308505,85.1792552 Z M171.607857,117.613223 L150.545616,117.613223 C155.75516,122.913223 165.390014,124.642697 173.400388,124.698486 L173.344371,125.591118 C169.535243,127.878486 167.294579,130.835329 167.070512,134.405855 C159.116155,131.616381 153.010346,125.814276 149.145201,117.94796 C146.176321,125.925855 138.670097,131.895329 119.680471,134.573223 L119.400388,134.015329 C132.676321,129.998486 137.997898,124.084802 139.958479,117.613223 L121.080886,117.613223 L120.632753,116.051118 L140.350595,116.051118 C140.742711,114.377434 140.910761,112.70375 140.966778,111.030065 C140.294579,111.64375 137.269682,112.759539 134.524869,112.759539 L133.124454,112.759539 L133.124454,101.824802 C130.88379,103.944802 128.194994,106.34375 124.946031,108.798486 C124.777981,109.579539 124.217815,110.304802 123.489599,110.52796 L120.52072,101.992171 C123.209516,101.434276 128.138977,100.039539 133.124454,98.2542759 L133.124454,81.6290128 L143.151425,82.5216444 C143.039392,83.2469075 142.591259,83.8605917 141.078811,84.0837496 L141.078811,110.416381 L142.08711,110.58375 L141.863043,110.025855 C152.114081,106.064802 158.668023,99.8721707 162.253085,91.0574338 L151.553915,91.0574338 C150.657649,92.1732233 149.705367,93.2890128 148.753085,94.3490128 C162.141052,94.962697 155.811176,105.785855 149.929433,101.322697 C149.98545,99.202697 149.089184,96.8595391 147.856819,95.2974338 C146.064288,97.1942759 144.159724,98.9237496 142.199143,100.262697 L141.694994,99.9279601 C144.327774,95.4090128 147.072587,87.431118 148.248935,81.5732233 L158.555989,82.9121707 C158.443956,83.5816444 157.995823,83.8605917 156.483375,83.9721707 C155.41906,85.7574338 154.130678,87.5984865 152.730263,89.4953286 L162.365118,89.4953286 L166.006197,85.7016444 L173.344371,91.3921707 C172.952255,91.9500654 172.112006,92.2290128 170.823624,92.3405917 C165.894164,101.992171 158.443956,108.240592 142.871342,110.639539 L152.506197,111.866908 C152.338147,112.759539 151.721965,113.317434 150.32155,113.373223 C150.1535,114.265855 149.98545,115.158486 149.705367,116.051118 L161.356819,116.051118 L165.558064,110.695329 C165.558064,110.695329 170.375492,114.265855 173.232338,116.720592 C173.064288,117.334276 172.448106,117.613223 171.607857,117.613223 Z M198.130096,105.497845 L195.836389,105.497845 C195.276949,112.720067 193.878347,119.442289 190.130096,125.331178 C191.304921,125.442289 193.151075,125.497845 194.046179,125.497845 C194.773452,125.497845 195.221005,125.386733 195.668557,124.997845 C197.067158,123.775622 197.738487,118.386733 198.130096,105.497845 Z M222.895743,90.8946577 L229.261823,96.5532201 C228.815081,97.0574484 228.089124,97.449626 226.80474,97.6737275 C226.357997,121.59656 225.632041,127.927427 222.504843,131.008823 C220.550345,132.969711 218.037418,133.754066 215.077749,133.754066 C215.077749,131.344975 214.910221,129.664214 214.29595,128.711782 C213.569993,127.591275 212.50898,126.862945 210.610324,126.302692 L210.610324,125.630387 C212.006394,125.742438 214.128421,125.854489 215.133592,125.854489 C215.971234,125.854489 216.473819,125.630387 216.976405,125.182184 C218.763375,123.501423 219.321803,115.713897 219.712702,96.385144 L216.864719,96.385144 C216.473819,112.352374 214.463478,124.958083 201.00536,133.810091 L200.391089,133.081761 C208.320769,123.165271 209.493468,111.175842 209.605153,96.385144 L206.422113,96.385144 L206.198742,95.6568142 C205.919528,95.8248903 205.528628,95.8809157 205.137728,95.8809157 L195.979507,95.8809157 C195.979507,98.4020573 195.867821,100.867174 195.756136,103.33229 L197.375577,103.33229 L200.893675,99.8587169 L206.980541,105.013051 C206.533799,105.517279 205.863685,105.853432 204.635143,106.021508 C204.188401,122.773093 203.18323,127.983453 200.279404,130.448569 C198.492434,131.961254 196.370407,132.801634 193.689952,132.801634 C193.689952,130.504594 193.578266,128.711782 192.963995,127.815377 C192.293881,126.80692 191.400396,126.07859 189.669269,125.630387 L189.669269,125.35026 C187.658928,128.431656 185.034316,131.28895 181.460376,133.866117 L180.790262,133.137787 C188.664099,122.044763 188.49657,109.102903 188.552413,95.8809157 L185.704429,95.8809157 L185.704429,100.755123 C185.704429,110.503537 185.425215,123.613474 175.820252,132.409457 L175.261823,132.017279 C178.779921,122.773093 178.724078,110.95174 178.724078,100.755123 L178.724078,83.051106 L186.765443,85.8523745 L197.096363,85.8523745 L200.949517,80.8661165 C200.949517,80.8661165 205.3611,84.2276387 207.985712,86.5246789 C207.818183,87.140958 207.203912,87.4210848 206.422113,87.4210848 L185.704429,87.4210848 L185.704429,94.3122053 L196.761306,94.3122053 L200.279404,89.8301757 C200.279404,89.8301757 204.020872,92.6874696 206.477956,94.8164336 L209.605153,94.8164336 C209.605153,90.5585055 209.549311,86.0764759 209.549311,81.3143195 L219.098432,82.1547 C218.930903,83.051106 218.372475,83.5553343 217.032247,83.7794358 C216.976405,87.5891609 216.976405,91.2868353 216.920562,94.8164336 L219.042589,94.8164336 L222.895743,90.8946577 Z" id="path-5"></path>
        <filter x="-3.2%" y="-9.3%" width="106.4%" height="126.1%" filterUnits="objectBoundingBox" id="filter-6">
            <feOffset dx="0" dy="2" in="SourceAlpha" result="shadowOffsetOuter1"></feOffset>
            <feGaussianBlur stdDeviation="2" in="shadowOffsetOuter1" result="shadowBlurOuter1"></feGaussianBlur>
            <feColorMatrix values="0 0 0 0 0.870934311   0 0 0 0 0.101031679   0 0 0 0 0.101031679  0 0 0 0.5 0" type="matrix" in="shadowBlurOuter1"></feColorMatrix>
        </filter>
    </defs>
    <g id="首页" stroke="none" stroke-width="1" fill="none" fill-rule="evenodd">
        <g id="画板" transform="translate(-166.000000, -148.000000)">
            <g id="invite_no_limit" transform="translate(183.000000, 162.000000)">
                <g id="分组" transform="translate(3.000000, 1.000000)">
                    <g id="路径-6">
                        <use fill="black" fill-opacity="1" filter="url(#filter-3)" xlink:href="#path-2"></use>
                        <use fill="url(#linearGradient-1)" fill-rule="evenodd" xlink:href="#path-2"></use>
                        <use fill="black" fill-opacity="1" filter="url(#filter-4)" xlink:href="#path-2"></use>
                    </g>
                    <polygon id="路径-6" stroke-opacity="0.087890625" stroke="#000000" points="170.005081 7 281 7 6 268 6 161.816233"></polygon>
                </g>
                <g id="限时奖励" transform="translate(120.280330, 107.719670) rotate(-44.000000) translate(-120.280330, -107.719670) ">
                    <use fill="black" fill-opacity="1" filter="url(#filter-6)" xlink:href="#path-5"></use>
                    <use fill="#FFFFFF" fill-rule="evenodd" xlink:href="#path-5"></use>
                </g>
                <polygon id="路径-7" fill="#EF6E6E" points="304.001481 1.03017995 304.001481 6.94811998 296.596883 6.94811998"></polygon>
                <polygon id="路径-8" fill="#FF7A7A" points="2.38609199 286.369816 10.2020922 286.369816 10.2020922 280.104741"></polygon>
            </g>
        </g>
    </g>
</svg>